<svg width="104" height="17" viewBox="0 0 104 17" fill="none" xmlns="http://www.w3.org/2000/svg">
<path d="M7.63239 0.415969C9.96823 0.415969 11.8168 1.16033 13.1781 2.64907C14.5469 4.1378 15.2313 6.15561 15.2313 8.70251C15.2313 11.2494 14.5506 13.2709 13.1893 14.7669C11.828 16.2556 9.97567 17 7.63239 17C5.27423 17 3.41077 16.2556 2.042 14.7669C0.680666 13.2782 0 11.2567 0 8.70251C0 6.15561 0.684386 4.1378 2.05316 2.64907C3.42937 1.16033 5.28911 0.415969 7.63239 0.415969ZM7.63239 2.92273C6.19667 2.92273 5.05478 3.44452 4.20674 4.48809C3.36614 5.53166 2.94583 6.93647 2.94583 8.70251C2.94583 10.4759 3.36242 11.8843 4.19558 12.9279C5.03619 13.9715 6.18179 14.4932 7.63239 14.4932C9.06067 14.4932 10.1914 13.9715 11.0246 12.9279C11.8652 11.877 12.2855 10.4686 12.2855 8.70251C12.2855 6.93647 11.8652 5.53166 11.0246 4.48809C10.1914 3.44452 9.06067 2.92273 7.63239 2.92273Z" fill="white"/>
<path d="M28.4099 4.63039V16.6059H25.743V14.7012H25.5533C24.9359 16.1316 23.7196 16.8467 21.9045 16.8467C20.5729 16.8467 19.5352 16.46 18.7913 15.6864C18.0474 14.9056 17.6755 13.8146 17.6755 12.4134V4.63039H20.4428V11.7347C20.4428 12.6542 20.6399 13.3402 21.0341 13.7927C21.4284 14.2378 22.0384 14.4604 22.8641 14.4604C23.7568 14.4604 24.4412 14.2086 24.9173 13.7051C25.4008 13.2015 25.6426 12.501 25.6426 11.6033V4.63039H28.4099Z" fill="white"/>
<path d="M32.2265 1.69672H34.9827V4.70702H37.5938V6.87444H34.9827V12.7527C34.9827 13.3439 35.1166 13.7781 35.3844 14.0554C35.6522 14.3254 36.0762 14.4604 36.6564 14.4604C36.9094 14.4604 37.2218 14.4422 37.5938 14.4057V16.5293C37.1325 16.6169 36.649 16.6607 36.1432 16.6607C34.7446 16.6607 33.7404 16.4089 33.1304 15.9053C32.5278 15.4018 32.2265 14.5699 32.2265 13.4095V6.87444H30.2961V4.70702H32.2265V1.69672Z" fill="white"/>
<path d="M43.073 3.15261V8.43979H46.3982C47.3132 8.43979 48.0199 8.20992 48.5183 7.75016C49.0242 7.29041 49.2771 6.64091 49.2771 5.80167C49.2771 4.97703 49.013 4.33119 48.4849 3.86413C47.9641 3.38978 47.2463 3.15261 46.3313 3.15261H43.073ZM43.073 10.6838V16.6059H40.1941V0.810045H46.733C48.4216 0.810045 49.7606 1.2552 50.75 2.14552C51.7394 3.02855 52.2341 4.22902 52.2341 5.74694C52.2341 6.79781 51.9663 7.72827 51.4307 8.53831C50.8951 9.34106 50.1512 9.91028 49.199 10.246L52.7139 16.6059H49.4222L46.2643 10.6838H43.073Z" fill="white"/>
<path d="M59.7219 6.54604C58.8962 6.54604 58.2155 6.81241 57.6799 7.34514C57.1443 7.87787 56.8467 8.5821 56.7872 9.45782H62.5338C62.5041 8.5675 62.2363 7.85963 61.7304 7.33419C61.2246 6.80876 60.555 6.54604 59.7219 6.54604ZM62.5561 13.311H65.1784C64.918 14.4057 64.3043 15.2704 63.3372 15.9053C62.3776 16.5329 61.1836 16.8467 59.7554 16.8467C57.9626 16.8467 56.5529 16.2994 55.5263 15.2048C54.5072 14.1028 53.9976 12.5885 53.9976 10.6619C53.9976 8.73535 54.5109 7.21013 55.5375 6.08628C56.564 4.95514 57.9626 4.38957 59.733 4.38957C61.4738 4.38957 62.8351 4.92595 63.817 5.99871C64.8064 7.06418 65.3011 8.54196 65.3011 10.4321V11.3078H56.776V11.4501C56.8132 12.4499 57.1034 13.2417 57.6464 13.8255C58.1969 14.402 58.9259 14.6903 59.8335 14.6903C61.232 14.6903 62.1395 14.2305 62.5561 13.311Z" fill="white"/>
<path d="M71.7958 14.6684C72.6289 14.6684 73.3245 14.4349 73.8824 13.9678C74.4403 13.4935 74.7193 12.9096 74.7193 12.2164V11.264L71.9632 11.4391C70.4456 11.534 69.6868 12.074 69.6868 13.0592C69.6868 13.5555 69.8802 13.9496 70.2671 14.2415C70.6613 14.5261 71.1709 14.6684 71.7958 14.6684ZM70.9812 16.803C69.791 16.803 68.8202 16.4746 68.0689 15.8178C67.3175 15.161 66.9418 14.2926 66.9418 13.2125C66.9418 12.1324 67.3398 11.2859 68.1358 10.6729C68.9392 10.0599 70.0848 9.70959 71.5726 9.62202L74.7193 9.43593V8.42885C74.7193 7.83773 74.5222 7.38528 74.1279 7.07147C73.7336 6.75767 73.1646 6.60077 72.4207 6.60077C71.7809 6.60077 71.2527 6.71024 70.8362 6.92917C70.4196 7.1408 70.148 7.44731 70.0216 7.84868H67.4105C67.5221 6.79051 68.0428 5.95128 68.9727 5.33097C69.91 4.70337 71.104 4.38957 72.5546 4.38957C74.1167 4.38957 75.3219 4.74351 76.1699 5.45138C77.0254 6.15926 77.4531 7.15175 77.4531 8.42885V16.6059H74.7862V14.9639H74.5966C74.2544 15.5405 73.7634 15.9929 73.1236 16.3213C72.4913 16.6424 71.7772 16.803 70.9812 16.803Z" fill="white"/>
<path d="M90.8772 8.65872H88.2438C88.1099 8.05302 87.8123 7.57137 87.3511 7.21378C86.8899 6.84889 86.2911 6.66645 85.5546 6.66645C84.6024 6.66645 83.8585 7.00944 83.3229 7.69543C82.7948 8.38141 82.5307 9.34471 82.5307 10.5853C82.5307 11.8405 82.7985 12.8184 83.3341 13.519C83.8697 14.2196 84.6099 14.5699 85.5546 14.5699C86.2762 14.5699 86.8676 14.4057 87.3288 14.0773C87.7975 13.7489 88.1025 13.2745 88.2438 12.6542H90.8772C90.721 13.9313 90.1742 14.9493 89.2369 15.7083C88.307 16.4673 87.0833 16.8467 85.5658 16.8467C83.7283 16.8467 82.2963 16.2958 81.2698 15.1938C80.2432 14.0919 79.7299 12.5557 79.7299 10.5853C79.7299 8.63683 80.2432 7.11891 81.2698 6.03155C82.2963 4.9369 83.7246 4.38957 85.5546 4.38957C87.087 4.38957 88.3182 4.78 89.2481 5.56085C90.1854 6.33441 90.7284 7.36703 90.8772 8.65872Z" fill="white"/>
<path d="M93.1763 16.6059V0H95.899V6.56793H96.0998C96.3899 5.88925 96.8549 5.36016 97.4946 4.98068C98.1344 4.6012 98.9043 4.41146 99.8044 4.41146C101.121 4.41146 102.148 4.80189 102.884 5.58274C103.628 6.3636 104 7.4619 104 8.87766V16.6059H101.233V9.5235C101.233 8.61859 101.024 7.93625 100.608 7.4765C100.191 7.00944 99.5812 6.77592 98.7778 6.77592C97.8852 6.77592 97.1896 7.03863 96.6912 7.56407C96.1928 8.08221 95.9436 8.77914 95.9436 9.65486V16.6059H93.1763Z" fill="white"/>
</svg>
