<svg width="25" height="32" viewBox="0 0 25 32" fill="none" xmlns="http://www.w3.org/2000/svg">
<path d="M15.75 21C18.4683 21 20.6718 18.7614 20.6718 16C20.6718 13.2386 18.4683 11 15.75 11C13.0317 11 10.8281 13.2386 10.8281 16C10.8281 18.7614 13.0317 21 15.75 21Z" fill="#8061FF"/>
<path d="M24.6181 27.8386C25.0369 28.264 24.9949 28.9682 24.5028 29.3031C21.9994 31.0066 18.9884 32 15.749 32C12.5095 32 9.49845 31.0066 6.995 29.3031C6.50299 28.9682 6.46094 28.264 6.87969 27.8386L10.4765 24.1846C10.8016 23.8544 11.3059 23.8022 11.7151 24.0151C12.925 24.6448 14.2961 25 15.749 25C17.2018 25 18.5729 24.6448 19.7829 24.0151C20.192 23.8022 20.6962 23.8544 21.0214 24.1846L24.6181 27.8386Z" fill="#8061FF"/>
<path d="M24.5038 2.697C24.9959 3.0318 25.0379 3.73609 24.6192 4.16149L21.0224 7.81545C20.6972 8.14569 20.1929 8.19785 19.7837 7.98491C18.5738 7.35525 17.2027 7 15.7499 7C10.8571 7 6.89059 11.0294 6.89059 16C6.89059 17.4759 7.24029 18.8688 7.86011 20.098C8.06972 20.5136 8.01838 21.0258 7.6933 21.3561L4.09645 25.0101C3.67769 25.4354 2.98441 25.3927 2.65484 24.893C0.978 22.3497 0 19.2908 0 16C0 7.16345 7.05148 0 15.7499 0C18.9894 0 22.0005 0.993529 24.5038 2.697Z" fill="#7963F7" fill-opacity="0.5"/>
</svg>
