<svg width="144" height="32" viewBox="0 0 144 32" fill="none" xmlns="http://www.w3.org/2000/svg">
<path d="M15.75 21C18.4683 21 20.6718 18.7614 20.6718 16C20.6718 13.2386 18.4683 11 15.75 11C13.0317 11 10.8281 13.2386 10.8281 16C10.8281 18.7614 13.0317 21 15.75 21Z" fill="#6C47FF"/>
<path d="M24.6181 27.8384C25.0369 28.2638 24.9949 28.968 24.5028 29.3029C21.9994 31.0064 18.9884 31.9998 15.749 31.9998C12.5095 31.9998 9.49845 31.0064 6.995 29.3029C6.50299 28.968 6.46094 28.2638 6.87969 27.8384L10.4765 24.1843C10.8016 23.8542 11.3059 23.8019 11.7151 24.0149C12.925 24.6446 14.2961 24.9998 15.749 24.9998C17.2018 24.9998 18.5729 24.6446 19.7829 24.0149C20.192 23.8019 20.6962 23.8542 21.0214 24.1843L24.6181 27.8384Z" fill="#6C47FF"/>
<path d="M24.5038 2.697C24.9959 3.0318 25.0379 3.73609 24.6192 4.16149L21.0224 7.81545C20.6972 8.14569 20.1929 8.19785 19.7837 7.98491C18.5738 7.35525 17.2027 7 15.7499 7C10.8571 7 6.89059 11.0294 6.89059 16C6.89059 17.4759 7.24029 18.8688 7.86011 20.098C8.06972 20.5136 8.01838 21.0258 7.6933 21.3561L4.09645 25.0101C3.67769 25.4354 2.98441 25.3927 2.65484 24.893C0.978 22.3497 0 19.2908 0 16C0 7.16345 7.05148 0 15.7499 0C18.9894 0 22.0005 0.993529 24.5038 2.697Z" fill="#654BF6" fill-opacity="0.5"/>
<path d="M37.6324 8.41597C39.9682 8.41597 41.8168 9.16033 43.1781 10.6491C44.5469 12.1378 45.2313 14.1556 45.2313 16.7025C45.2313 19.2494 44.5506 21.2709 43.1893 22.7669C41.828 24.2556 39.9757 25 37.6324 25C35.2742 25 33.4108 24.2556 32.042 22.7669C30.6807 21.2782 30 19.2567 30 16.7025C30 14.1556 30.6844 12.1378 32.0532 10.6491C33.4294 9.16033 35.2891 8.41597 37.6324 8.41597ZM37.6324 10.9227C36.1967 10.9227 35.0548 11.4445 34.2067 12.4881C33.3661 13.5317 32.9458 14.9365 32.9458 16.7025C32.9458 18.4759 33.3624 19.8843 34.1956 20.9279C35.0362 21.9715 36.1818 22.4932 37.6324 22.4932C39.0607 22.4932 40.1914 21.9715 41.0246 20.9279C41.8652 19.877 42.2855 18.4686 42.2855 16.7025C42.2855 14.9365 41.8652 13.5317 41.0246 12.4881C40.1914 11.4445 39.0607 10.9227 37.6324 10.9227Z" fill="#020F17"/>
<path d="M58.4099 12.6304V24.6059H55.743V22.7012H55.5533C54.9359 24.1316 53.7196 24.8467 51.9045 24.8467C50.5729 24.8467 49.5352 24.46 48.7913 23.6864C48.0474 22.9056 47.6755 21.8146 47.6755 20.4134V12.6304H50.4428V19.7347C50.4428 20.6542 50.6399 21.3402 51.0341 21.7927C51.4284 22.2378 52.0384 22.4604 52.8641 22.4604C53.7568 22.4604 54.4412 22.2086 54.9173 21.7051C55.4008 21.2015 55.6426 20.501 55.6426 19.6033V12.6304H58.4099Z" fill="#020F17"/>
<path d="M62.2265 9.69672H64.9827V12.707H67.5938V14.8744H64.9827V20.7527C64.9827 21.3439 65.1166 21.7781 65.3844 22.0554C65.6522 22.3254 66.0762 22.4604 66.6564 22.4604C66.9094 22.4604 67.2218 22.4422 67.5938 22.4057V24.5293C67.1325 24.6169 66.649 24.6607 66.1432 24.6607C64.7446 24.6607 63.7404 24.4089 63.1304 23.9053C62.5278 23.4018 62.2265 22.5699 62.2265 21.4095V14.8744H60.2961V12.707H62.2265V9.69672Z" fill="#020F17"/>
<path d="M73.073 11.1526V16.4398H76.3982C77.3132 16.4398 78.0199 16.2099 78.5183 15.7502C79.0242 15.2904 79.2771 14.6409 79.2771 13.8017C79.2771 12.977 79.013 12.3312 78.4849 11.8641C77.9641 11.3898 77.2463 11.1526 76.3313 11.1526H73.073ZM73.073 18.6838V24.6059H70.1941V8.81005H76.733C78.4216 8.81005 79.7606 9.2552 80.75 10.1455C81.7394 11.0285 82.2341 12.229 82.2341 13.7469C82.2341 14.7978 81.9663 15.7283 81.4307 16.5383C80.8951 17.3411 80.1512 17.9103 79.199 18.246L82.7139 24.6059H79.4222L76.2643 18.6838H73.073Z" fill="#020F17"/>
<path d="M89.7219 14.546C88.8962 14.546 88.2155 14.8124 87.6799 15.3451C87.1443 15.8779 86.8467 16.5821 86.7872 17.4578H92.5338C92.5041 16.5675 92.2363 15.8596 91.7304 15.3342C91.2246 14.8088 90.555 14.546 89.7219 14.546ZM92.5561 21.311H95.1784C94.918 22.4057 94.3043 23.2704 93.3372 23.9053C92.3776 24.5329 91.1836 24.8467 89.7554 24.8467C87.9626 24.8467 86.5529 24.2994 85.5263 23.2048C84.5072 22.1028 83.9976 20.5885 83.9976 18.6619C83.9976 16.7354 84.5109 15.2101 85.5375 14.0863C86.564 12.9551 87.9626 12.3896 89.733 12.3896C91.4738 12.3896 92.8351 12.9259 93.817 13.9987C94.8064 15.0642 95.3011 16.542 95.3011 18.4321V19.3078H86.776V19.4501C86.8132 20.4499 87.1034 21.2417 87.6464 21.8255C88.1969 22.402 88.9259 22.6903 89.8335 22.6903C91.232 22.6903 92.1395 22.2305 92.5561 21.311Z" fill="#020F17"/>
<path d="M101.796 22.6684C102.629 22.6684 103.324 22.4349 103.882 21.9678C104.44 21.4935 104.719 20.9096 104.719 20.2164V19.264L101.963 19.4391C100.446 19.534 99.6868 20.074 99.6868 21.0592C99.6868 21.5555 99.8802 21.9496 100.267 22.2415C100.661 22.5261 101.171 22.6684 101.796 22.6684ZM100.981 24.803C99.791 24.803 98.8202 24.4746 98.0689 23.8178C97.3175 23.161 96.9418 22.2926 96.9418 21.2125C96.9418 20.1324 97.3398 19.2859 98.1358 18.6729C98.9392 18.0599 100.085 17.7096 101.573 17.622L104.719 17.4359V16.4288C104.719 15.8377 104.522 15.3853 104.128 15.0715C103.734 14.7577 103.165 14.6008 102.421 14.6008C101.781 14.6008 101.253 14.7102 100.836 14.9292C100.42 15.1408 100.148 15.4473 100.022 15.8487H97.4105C97.5221 14.7905 98.0428 13.9513 98.9727 13.331C99.91 12.7034 101.104 12.3896 102.555 12.3896C104.117 12.3896 105.322 12.7435 106.17 13.4514C107.025 14.1593 107.453 15.1517 107.453 16.4288V24.6059H104.786V22.9639H104.597C104.254 23.5405 103.763 23.9929 103.124 24.3213C102.491 24.6424 101.777 24.803 100.981 24.803Z" fill="#020F17"/>
<path d="M120.877 16.6587H118.244C118.11 16.053 117.812 15.5714 117.351 15.2138C116.89 14.8489 116.291 14.6665 115.555 14.6665C114.602 14.6665 113.859 15.0094 113.323 15.6954C112.795 16.3814 112.531 17.3447 112.531 18.5853C112.531 19.8405 112.798 20.8184 113.334 21.519C113.87 22.2196 114.61 22.5699 115.555 22.5699C116.276 22.5699 116.868 22.4057 117.329 22.0773C117.797 21.7489 118.102 21.2745 118.244 20.6542H120.877C120.721 21.9313 120.174 22.9493 119.237 23.7083C118.307 24.4673 117.083 24.8467 115.566 24.8467C113.728 24.8467 112.296 24.2958 111.27 23.1938C110.243 22.0919 109.73 20.5557 109.73 18.5853C109.73 16.6368 110.243 15.1189 111.27 14.0316C112.296 12.9369 113.725 12.3896 115.555 12.3896C117.087 12.3896 118.318 12.78 119.248 13.5609C120.185 14.3344 120.728 15.367 120.877 16.6587Z" fill="#020F17"/>
<path d="M123.176 24.6059V8H125.899V14.5679H126.1C126.39 13.8892 126.855 13.3602 127.495 12.9807C128.134 12.6012 128.904 12.4115 129.804 12.4115C131.121 12.4115 132.148 12.8019 132.884 13.5827C133.628 14.3636 134 15.4619 134 16.8777V24.6059H131.233V17.5235C131.233 16.6186 131.024 15.9363 130.608 15.4765C130.191 15.0094 129.581 14.7759 128.778 14.7759C127.885 14.7759 127.19 15.0386 126.691 15.5641C126.193 16.0822 125.944 16.7791 125.944 17.6549V24.6059H123.176Z" fill="#020F17"/>
</svg>
