<svg width="28" height="28" viewBox="0 0 28 28" fill="none" xmlns="http://www.w3.org/2000/svg">
<path opacity="0.5" d="M11.6561 19.25L10.5176 19.8031C8.20653 20.442 7.05098 20.7614 6.42809 20.0891C5.8052 19.4167 6.12749 18.1979 6.77206 15.7602L6.93882 15.1295C7.12199 14.4368 7.21357 14.0905 7.16752 13.747C7.12146 13.4035 6.94298 13.1018 6.58603 12.4985L6.26105 11.9491C5.00491 9.8258 4.37684 8.76413 4.79631 7.91939C5.21578 7.07464 6.40499 7.00625 8.78341 6.86948L9.39874 6.8341C10.0746 6.79523 10.4125 6.7758 10.7072 6.61857C11.0019 6.46134 11.22 6.18411 11.6561 5.62966L12.0532 5.12488C13.5879 3.17374 14.3553 2.19817 15.2374 2.34843C16.1196 2.49869 16.5323 3.67528 17.3576 6.02844L17.5712 6.63723C17.8057 7.30593 17.923 7.64028 18.1512 7.88657C18.3793 8.13286 18.6926 8.26322 19.3191 8.52393L19.8895 8.76129C22.0941 9.67874 23.1965 10.1375 23.3222 11.0751C23.4295 11.875 22.7652 12.5716 21.4076 13.747" stroke="#6C47FF" stroke-width="1.5"/>
<path d="M17.7934 12.4705C16.6424 11.0932 16.0668 10.4046 15.4052 10.5106C14.7436 10.6167 14.4341 11.4472 13.8151 13.1083L13.6549 13.538C13.479 14.0101 13.3911 14.2461 13.2199 14.4199C13.0488 14.5938 12.8139 14.6858 12.344 14.8698L11.9162 15.0374C10.2627 15.685 9.43595 16.0088 9.34166 16.6706C9.24737 17.3325 9.94799 17.8941 11.3492 19.0172L11.7117 19.3078C12.1099 19.6269 12.309 19.7865 12.4243 20.0049C12.5395 20.2234 12.5579 20.4759 12.5946 20.981L12.628 21.4409C12.7571 23.2184 12.8217 24.1072 13.425 24.4102C14.0284 24.7131 14.7709 24.2297 16.2559 23.2628L16.6401 23.0126C17.0621 22.7378 17.2731 22.6004 17.5155 22.5616C17.7578 22.5227 18.0041 22.5868 18.4967 22.715L18.9451 22.8316C20.6784 23.2826 21.5451 23.5081 22.0122 23.0335C22.4794 22.5589 22.2377 21.6985 21.7543 19.9778L21.6292 19.5326C21.4918 19.0436 21.4231 18.7991 21.4577 18.5567C21.4922 18.3142 21.6261 18.1013 21.8938 17.6754L22.1375 17.2876C23.0796 15.7888 23.5507 15.0394 23.2361 14.4431C22.9215 13.8468 22.0296 13.7985 20.2458 13.702L19.7843 13.677C19.2774 13.6496 19.0239 13.6359 18.8029 13.5249C18.5819 13.4139 18.4183 13.2182 18.0912 12.8268L17.7934 12.4705Z" stroke="#6C47FF" stroke-width="1.5"/>
</svg>
